<svg width="18" height="18" viewBox="0 0 18 18" fill="none" xmlns="http://www.w3.org/2000/svg">
<path id="Vector" d="M0.501221 1C0.501221 0.801088 0.580238 0.610322 0.720891 0.46967C0.861543 0.329018 1.05231 0.25 1.25122 0.25H1.80922C2.75922 0.25 3.32922 0.889 3.65422 1.483C3.87122 1.879 4.02822 2.338 4.15122 2.754C4.18449 2.75137 4.21785 2.75004 4.25122 2.75H16.7492C17.5792 2.75 18.1792 3.544 17.9512 4.343L16.1232 10.752C15.9593 11.3269 15.6126 11.8327 15.1355 12.1928C14.6584 12.553 14.077 12.7479 13.4792 12.748H7.53122C6.92871 12.748 6.34287 12.5502 5.86375 12.1849C5.38462 11.8196 5.03872 11.307 4.87922 10.726L4.11922 7.954L2.85922 3.706L2.85822 3.698C2.70222 3.131 2.55622 2.6 2.33822 2.204C2.12922 1.819 1.96122 1.75 1.81022 1.75H1.25122C1.05231 1.75 0.861543 1.67098 0.720891 1.53033C0.580238 1.38968 0.501221 1.19891 0.501221 1ZM5.57422 7.59L6.32522 10.329C6.47522 10.871 6.96822 11.248 7.53122 11.248H13.4792C13.7509 11.248 14.0152 11.1595 14.2321 10.9958C14.449 10.8321 14.6067 10.6023 14.6812 10.341L16.4182 4.25H4.58622L5.56022 7.537L5.57422 7.59ZM9.00122 15.75C9.00122 16.2804 8.79051 16.7891 8.41543 17.1642C8.04036 17.5393 7.53165 17.75 7.00122 17.75C6.47079 17.75 5.96208 17.5393 5.58701 17.1642C5.21193 16.7891 5.00122 16.2804 5.00122 15.75C5.00122 15.2196 5.21193 14.7109 5.58701 14.3358C5.96208 13.9607 6.47079 13.75 7.00122 13.75C7.53165 13.75 8.04036 13.9607 8.41543 14.3358C8.79051 14.7109 9.00122 15.2196 9.00122 15.75ZM7.50122 15.75C7.50122 15.6174 7.44854 15.4902 7.35477 15.3964C7.26101 15.3027 7.13383 15.25 7.00122 15.25C6.86861 15.25 6.74144 15.3027 6.64767 15.3964C6.5539 15.4902 6.50122 15.6174 6.50122 15.75C6.50122 15.8826 6.5539 16.0098 6.64767 16.1036C6.74144 16.1973 6.86861 16.25 7.00122 16.25C7.13383 16.25 7.26101 16.1973 7.35477 16.1036C7.44854 16.0098 7.50122 15.8826 7.50122 15.75ZM16.0012 15.75C16.0012 16.2804 15.7905 16.7891 15.4154 17.1642C15.0404 17.5393 14.5317 17.75 14.0012 17.75C13.4708 17.75 12.9621 17.5393 12.587 17.1642C12.2119 16.7891 12.0012 16.2804 12.0012 15.75C12.0012 15.2196 12.2119 14.7109 12.587 14.3358C12.9621 13.9607 13.4708 13.75 14.0012 13.75C14.5317 13.75 15.0404 13.9607 15.4154 14.3358C15.7905 14.7109 16.0012 15.2196 16.0012 15.75ZM14.5012 15.75C14.5012 15.6174 14.4485 15.4902 14.3548 15.3964C14.261 15.3027 14.1338 15.25 14.0012 15.25C13.8686 15.25 13.7414 15.3027 13.6477 15.3964C13.5539 15.4902 13.5012 15.6174 13.5012 15.75C13.5012 15.8826 13.5539 16.0098 13.6477 16.1036C13.7414 16.1973 13.8686 16.25 14.0012 16.25C14.1338 16.25 14.261 16.1973 14.3548 16.1036C14.4485 16.0098 14.5012 15.8826 14.5012 15.75Z" fill="#131313"/>
</svg>
