<svg width="39" height="38" viewBox="0 0 39 38" fill="none" xmlns="http://www.w3.org/2000/svg">
<g id="Group 11">
<rect id="Rectangle 69" x="0.992004" y="0.23999" width="37.024" height="37.024" rx="10.68" fill="#F9F9F9"/>
<path id="Vector" d="M19.4657 14.7155C17.2546 14.7155 15.4711 16.4989 15.4711 18.71C15.4711 20.9211 17.2546 22.7046 19.4657 22.7046C21.6768 22.7046 23.4603 20.9211 23.4603 18.71C23.4603 16.4989 21.6768 14.7155 19.4657 14.7155ZM19.4657 21.307C18.0368 21.307 16.8687 20.1424 16.8687 18.71C16.8687 17.2777 18.0334 16.113 19.4657 16.113C20.898 16.113 22.0627 17.2777 22.0627 18.71C22.0627 20.1424 20.8946 21.307 19.4657 21.307ZM24.5554 14.5521C24.5554 15.0701 24.1382 15.4838 23.6237 15.4838C23.1057 15.4838 22.692 15.0666 22.692 14.5521C22.692 14.0375 23.1091 13.6203 23.6237 13.6203C24.1382 13.6203 24.5554 14.0375 24.5554 14.5521ZM27.2011 15.4977C27.142 14.2496 26.8569 13.1441 25.9425 12.2332C25.0317 11.3223 23.9261 11.0373 22.678 10.9747C21.3917 10.9017 17.5362 10.9017 16.2499 10.9747C15.0053 11.0338 13.8997 11.3189 12.9854 12.2297C12.0711 13.1406 11.7895 14.2461 11.7269 15.4942C11.6539 16.7805 11.6539 20.636 11.7269 21.9224C11.786 23.1705 12.0711 24.276 12.9854 25.1869C13.8997 26.0977 15.0018 26.3828 16.2499 26.4454C17.5362 26.5184 21.3917 26.5184 22.678 26.4454C23.9261 26.3863 25.0317 26.1012 25.9425 25.1869C26.8534 24.276 27.1385 23.1705 27.2011 21.9224C27.2741 20.636 27.2741 16.784 27.2011 15.4977ZM25.5393 23.3026C25.2681 23.984 24.7431 24.5089 24.0582 24.7836C23.0327 25.1903 20.5991 25.0965 19.4657 25.0965C18.3323 25.0965 15.8953 25.1869 14.8732 24.7836C14.1918 24.5124 13.6668 23.9875 13.3921 23.3026C12.9854 22.277 13.0793 19.8434 13.0793 18.71C13.0793 17.5767 12.9889 15.1396 13.3921 14.1175C13.6633 13.4361 14.1883 12.9111 14.8732 12.6365C15.8988 12.2297 18.3323 12.3236 19.4657 12.3236C20.5991 12.3236 23.0361 12.2332 24.0582 12.6365C24.7396 12.9076 25.2646 13.4326 25.5393 14.1175C25.946 15.1431 25.8521 17.5767 25.8521 18.71C25.8521 19.8434 25.946 22.2805 25.5393 23.3026Z" fill="#2A2F2F"/>
</g>
</svg>
