<svg width="39" height="38" viewBox="0 0 39 38" fill="none" xmlns="http://www.w3.org/2000/svg">
<g id="Group 11">
<rect id="Rectangle 69" x="0.992004" y="0.976196" width="37.024" height="37.024" rx="10.68" fill="#131313"/>
<path id="Vector" d="M19.4656 15.4517C17.2545 15.4517 15.4711 17.2352 15.4711 19.4463C15.4711 21.6574 17.2545 23.4409 19.4656 23.4409C21.6767 23.4409 23.4602 21.6574 23.4602 19.4463C23.4602 17.2352 21.6767 15.4517 19.4656 15.4517ZM19.4656 22.0433C18.0368 22.0433 16.8686 20.8786 16.8686 19.4463C16.8686 18.014 18.0333 16.8493 19.4656 16.8493C20.898 16.8493 22.0626 18.014 22.0626 19.4463C22.0626 20.8786 20.8945 22.0433 19.4656 22.0433ZM24.5553 15.2883C24.5553 15.8063 24.1381 16.22 23.6236 16.22C23.1056 16.22 22.6919 15.8029 22.6919 15.2883C22.6919 14.7738 23.1091 14.3566 23.6236 14.3566C24.1381 14.3566 24.5553 14.7738 24.5553 15.2883ZM27.201 16.234C27.1419 14.9859 26.8568 13.8803 25.9425 12.9695C25.0316 12.0586 23.9261 11.7735 22.678 11.7109C21.3917 11.6379 17.5362 11.6379 16.2498 11.7109C15.0052 11.77 13.8997 12.0551 12.9853 12.966C12.071 13.8768 11.7894 14.9824 11.7268 16.2305C11.6538 17.5168 11.6538 21.3723 11.7268 22.6586C11.7859 23.9067 12.071 25.0123 12.9853 25.9231C13.8997 26.834 15.0017 27.1191 16.2498 27.1816C17.5362 27.2547 21.3917 27.2547 22.678 27.1816C23.9261 27.1225 25.0316 26.8375 25.9425 25.9231C26.8533 25.0123 27.1384 23.9067 27.201 22.6586C27.274 21.3723 27.274 17.5203 27.201 16.234ZM25.5392 24.0388C25.268 24.7202 24.7431 25.2452 24.0582 25.5199C23.0326 25.9266 20.599 25.8327 19.4656 25.8327C18.3323 25.8327 15.8952 25.9231 14.8731 25.5199C14.1917 25.2487 13.6667 24.7237 13.3921 24.0388C12.9853 23.0132 13.0792 20.5797 13.0792 19.4463C13.0792 18.3129 12.9888 15.8759 13.3921 14.8538C13.6633 14.1724 14.1882 13.6474 14.8731 13.3727C15.8987 12.966 18.3323 13.0599 19.4656 13.0599C20.599 13.0599 23.0361 12.9695 24.0582 13.3727C24.7396 13.6439 25.2645 14.1689 25.5392 14.8538C25.946 15.8793 25.8521 18.3129 25.8521 19.4463C25.8521 20.5797 25.946 23.0167 25.5392 24.0388Z" fill="#F9F9F9"/>
</g>
</svg>
