<svg width="25" height="24" viewBox="0 0 25 24" fill="none" xmlns="http://www.w3.org/2000/svg">
<g id="Mask group">
<mask id="mask0_103_52" style="mask-type:luminance" maskUnits="userSpaceOnUse" x="0" y="0" width="25" height="24">
<g id="Group">
<path id="Vector" d="M0.501221 12C0.501221 5.37258 5.8738 0 12.5012 0C19.1286 0 24.5012 5.37258 24.5012 12C24.5012 18.6274 19.1286 24 12.5012 24C5.8738 24 0.501221 18.6274 0.501221 12Z" fill="white"/>
</g>
</mask>
<g mask="url(#mask0_103_52)">
<g id="Group_2">
<path id="Vector_2" fill-rule="evenodd" clip-rule="evenodd" d="M0.501221 0V24H24.5012V0H0.501221Z" fill="#2E42A5"/>
<g id="Mask group_2">
<mask id="mask1_103_52" style="mask-type:luminance" maskUnits="userSpaceOnUse" x="0" y="0" width="25" height="24">
<g id="Group_3">
<path id="Vector_3" fill-rule="evenodd" clip-rule="evenodd" d="M0.498291 0V24H24.4983V0H0.498291Z" fill="white"/>
</g>
</mask>
<g mask="url(#mask1_103_52)">
<g id="Group_4">
<g id="Mask group_3">
<mask id="mask2_103_52" style="mask-type:luminance" maskUnits="userSpaceOnUse" x="0" y="0" width="25" height="24">
<g id="Group_5">
<path id="Vector_4" d="M0.497314 0H24.4973V24H0.497314V0Z" fill="white"/>
</g>
</mask>
<g mask="url(#mask2_103_52)">
<g id="Group_6">
<path id="Vector_5" d="M-2.16577 22.2848L3.1155 25.2628L24.6264 3.23725L27.4121 -1.18823L21.7647 -2.18359L12.9908 7.30788L5.92882 13.7029L-2.16577 22.2848Z" fill="#F9F9F9"/>
<path id="Vector_6" d="M-1.44019 24.3718L1.25037 26.1L26.4144 -1.59895H22.6366L-1.44019 24.3718Z" fill="#F50100"/>
<path id="Vector_7" d="M27.1805 22.2848L21.8992 25.2628L0.388289 3.23725L-2.39746 -1.18823L3.2501 -2.18359L12.0239 7.30788L19.0859 13.7029L27.1805 22.2848Z" fill="#F9F9F9"/>
<path id="Vector_8" d="M26.9942 23.7822L24.3036 25.5104L13.5885 13.6511L10.4117 12.326L-2.67163 -1.17317H1.10623L14.1822 12.0056L17.6555 13.5945L26.9942 23.7822Z" fill="#F50100"/>
<path id="Vector_9" fill-rule="evenodd" clip-rule="evenodd" d="M15.3412 -2.0013H9.67461V7.9987H-0.971436V15.9987H9.67461V25.9987H15.3412V15.9987H26.0286V7.9987H15.3412V-2.0013Z" fill="#F50100"/>
<g id="Mask group_4">
<mask id="mask3_103_52" style="mask-type:luminance" maskUnits="userSpaceOnUse" x="-1" y="-3" width="28" height="29">
<g id="Group_7">
<path id="Vector_10" fill-rule="evenodd" clip-rule="evenodd" d="M15.3393 -2.00195H9.67266V7.99805H-0.973389V15.998H9.67266V25.9981H15.3393V15.998H26.0266V7.99805H15.3393V-2.00195Z" fill="white"/>
</g>
</mask>
<g mask="url(#mask3_103_52)">
<path id="Vector_11" d="M9.66875 -2.00163V-4.00163H8.16875V-2.00163H9.66875ZM15.3354 -2.00163H16.8354V-4.00163H15.3354V-2.00163ZM9.66875 7.99837V9.99837H11.1688V7.99837H9.66875ZM-0.977295 7.99837V5.99837H-2.47729V7.99837H-0.977295ZM-0.977295 15.9984H-2.47729V17.9984H-0.977295V15.9984ZM9.66875 15.9984H11.1688V13.9984H9.66875V15.9984ZM9.66875 25.9984H8.16875V27.9984H9.66875V25.9984ZM15.3354 25.9984V27.9984H16.8354V25.9984H15.3354ZM15.3354 15.9984V13.9984H13.8354V15.9984H15.3354ZM26.0227 15.9984V17.9984H27.5227V15.9984H26.0227ZM26.0227 7.99837H27.5227V5.99837H26.0227V7.99837ZM15.3354 7.99837H13.8354V9.99837H15.3354V7.99837ZM9.66875 -0.00163174H15.3354V-4.00163H9.66875V-0.00163174ZM11.1688 7.99837V-2.00163H8.16875V7.99837H11.1688ZM-0.977295 9.99837H9.66875V5.99837H-0.977295V9.99837ZM0.522702 15.9984V7.99837H-2.47729V15.9984H0.522702ZM9.66875 13.9984H-0.977295V17.9984H9.66875V13.9984ZM11.1688 25.9984V15.9984H8.16875V25.9984H11.1688ZM15.3354 23.9984H9.66875V27.9984H15.3354V23.9984ZM13.8354 15.9984V25.9984H16.8354V15.9984H13.8354ZM26.0227 13.9984H15.3354V17.9984H26.0227V13.9984ZM24.5227 7.99837V15.9984H27.5227V7.99837H24.5227ZM15.3354 9.99837H26.0227V5.99837H15.3354V9.99837ZM13.8354 -2.00163V7.99837H16.8354V-2.00163H13.8354Z" fill="#F9F9F9"/>
</g>
</g>
</g>
</g>
</g>
</g>
</g>
</g>
</g>
</g>
</g>
</svg>
