<svg width="38" height="38" viewBox="0 0 38 38" fill="none" xmlns="http://www.w3.org/2000/svg">
<rect x="0.975952" y="0.23999" width="37.024" height="37.024" rx="10.68" fill="#F9F9F9"/>
<path d="M13.5299 25.512V16.8825H15.6659V25.512H13.5299ZM13.4103 15.2592V13.1744H15.7855V15.2592H13.4103ZM18.3272 25.512V19.0356C18.3272 18.6825 18.3158 18.3236 18.2931 17.9591C18.2703 17.5945 18.2361 17.2357 18.1905 16.8825H20.2582L20.4291 18.5913H20.224C20.4974 17.9875 20.9018 17.5262 21.4372 17.2072C21.9727 16.8768 22.5935 16.7116 23.2998 16.7116C24.3137 16.7116 25.077 16.9964 25.5896 17.566C26.1023 18.1356 26.3586 19.0242 26.3586 20.2318V25.512H24.2226V20.3343C24.2226 19.6394 24.0859 19.1438 23.8125 18.8476C23.5505 18.5401 23.1517 18.3863 22.6163 18.3863C21.9556 18.3863 21.4315 18.5913 21.0442 19.0014C20.6569 19.4115 20.4632 19.9584 20.4632 20.6419V25.512H18.3272Z" fill="#2A2F2F"/>
</svg>
