<svg width="38" height="38" viewBox="0 0 38 38" fill="none" xmlns="http://www.w3.org/2000/svg">
<rect x="0.975998" y="0.976196" width="37.024" height="37.024" rx="10.68" fill="#131313"/>
<path d="M13.5299 26.2482V17.6187H15.6659V26.2482H13.5299ZM13.4103 15.9954V13.9106H15.7855V15.9954H13.4103ZM18.3272 26.2482V19.7718C18.3272 19.4187 18.3158 19.0598 18.2931 18.6953C18.2703 18.3307 18.2361 17.9719 18.1905 17.6187H20.2582L20.4291 19.3275H20.224C20.4974 18.7238 20.9018 18.2624 21.4372 17.9434C21.9727 17.613 22.5935 17.4478 23.2998 17.4478C24.3137 17.4478 25.077 17.7326 25.5896 18.3022C26.1023 18.8718 26.3586 19.7604 26.3586 20.968V26.2482H24.2226V21.0705C24.2226 20.3756 24.0859 19.88 23.8125 19.5838C23.5505 19.2763 23.1517 19.1225 22.6163 19.1225C21.9556 19.1225 21.4315 19.3275 21.0442 19.7376C20.6569 20.1478 20.4632 20.6946 20.4632 21.3781V26.2482H18.3272Z" fill="#F9F9F9"/>
</svg>
