<svg width="16" height="16" viewBox="0 0 16 16" fill="none" xmlns="http://www.w3.org/2000/svg">
<g id="iconamoon:search">
<path id="Vector" d="M12.6673 12.6665L10.0937 10.0929M10.0937 10.0929C10.534 9.6527 10.8832 9.13008 11.1214 8.5549C11.3597 7.97972 11.4823 7.36324 11.4823 6.74067C11.4823 6.1181 11.3597 5.50162 11.1214 4.92644C10.8832 4.35126 10.534 3.82864 10.0937 3.38841C9.65351 2.94819 9.13089 2.59898 8.55571 2.36074C7.98053 2.12249 7.36405 1.99986 6.74148 1.99986C6.11891 1.99986 5.50243 2.12249 4.92725 2.36074C4.35207 2.59898 3.82945 2.94819 3.38922 3.38841C2.50015 4.27749 2.00067 5.48333 2.00067 6.74067C2.00067 7.99801 2.50015 9.20385 3.38922 10.0929C4.2783 10.982 5.48414 11.4815 6.74148 11.4815C7.99882 11.4815 9.20466 10.982 10.0937 10.0929Z" stroke="#131313" stroke-width="2" stroke-linecap="round" stroke-linejoin="round"/>
</g>
</svg>
