<svg width="39" height="38" viewBox="0 0 39 38" fill="none" xmlns="http://www.w3.org/2000/svg">
<g id="Group 12">
<rect id="Rectangle 71" x="0.984009" y="0.23999" width="37.024" height="37.024" rx="10.68" fill="#F9F9F9"/>
<path id="Vector" d="M28.3464 15.2349C28.3577 15.393 28.3577 15.5511 28.3577 15.7092C28.3577 20.5319 24.687 26.0888 17.9781 26.0888C15.9112 26.0888 13.9912 25.4902 12.3761 24.4511C12.6698 24.485 12.9521 24.4963 13.2571 24.4963C14.9625 24.4963 16.5324 23.9203 17.7861 22.9377C16.1823 22.9038 14.8383 21.8534 14.3752 20.4077C14.6011 20.4416 14.827 20.4642 15.0642 20.4642C15.3917 20.4642 15.7193 20.419 16.0242 20.3399C14.3526 20.0011 13.0989 18.5328 13.0989 16.7596V16.7144C13.5846 16.9855 14.1493 17.1549 14.7479 17.1775C13.7653 16.5224 13.1215 15.4043 13.1215 14.1393C13.1215 13.4616 13.3022 12.8404 13.6184 12.2983C15.4143 14.512 18.1136 15.9577 21.1405 16.1158C21.0841 15.8448 21.0502 15.5624 21.0502 15.2801C21.0502 13.2696 22.6766 11.632 24.6983 11.632C25.7486 11.632 26.6973 12.0724 27.3637 12.784C28.1882 12.6259 28.9788 12.3209 29.6791 11.903C29.408 12.7501 28.832 13.4617 28.0753 13.9134C28.8094 13.8344 29.521 13.6311 30.176 13.3487C29.6792 14.0715 29.0579 14.7153 28.3464 15.2349Z" fill="#2A2F2F"/>
</g>
</svg>
