<svg width="39" height="38" viewBox="0 0 39 38" fill="none" xmlns="http://www.w3.org/2000/svg">
<g id="Group 12">
<rect id="Rectangle 71" x="0.984001" y="0.976196" width="37.024" height="37.024" rx="10.68" fill="#131313"/>
<path id="Vector" d="M28.3464 15.9711C28.3577 16.1292 28.3577 16.2873 28.3577 16.4454C28.3577 21.2681 24.687 26.825 17.9781 26.825C15.9113 26.825 13.9912 26.2264 12.3761 25.1873C12.6698 25.2212 12.9521 25.2325 13.2571 25.2325C14.9625 25.2325 16.5324 24.6565 17.7861 23.6739C16.1823 23.64 14.8383 22.5896 14.3752 21.1439C14.6011 21.1778 14.827 21.2004 15.0642 21.2004C15.3917 21.2004 15.7193 21.1552 16.0242 21.0762C14.3526 20.7373 13.0989 19.269 13.0989 17.4958V17.4507C13.5846 17.7217 14.1493 17.8911 14.7479 17.9137C13.7653 17.2586 13.1215 16.1405 13.1215 14.8755C13.1215 14.1978 13.3022 13.5767 13.6185 13.0345C15.4143 15.2482 18.1137 16.6939 21.1405 16.852C21.0841 16.581 21.0502 16.2986 21.0502 16.0163C21.0502 14.0058 22.6766 12.3682 24.6983 12.3682C25.7486 12.3682 26.6974 12.8086 27.3637 13.5202C28.1882 13.3621 28.9788 13.0571 29.6791 12.6392C29.408 13.4863 28.832 14.1979 28.0753 14.6496C28.8094 14.5706 29.521 14.3673 30.176 14.0849C29.6792 14.8077 29.0579 15.4515 28.3464 15.9711Z" fill="#F9F9F9"/>
</g>
</svg>
